<svg xmlns="http://www.w3.org/2000/svg" version="1.1" xmlns:xlink="http://www.w3.org/1999/xlink" xmlns:svgjs="http://svgjs.dev/svgjs" width="2000" height="1500" viewBox="0 0 2000 1500"><rect width="2000" height="1500" fill="#000000"></rect><g transform="matrix(0.75,0,0,0.75,249.090909090909,282.7536437246963)"><svg viewBox="0 0 396 247" data-background-color="#ffffff" preserveAspectRatio="xMidYMid meet" height="1247" width="2000" xmlns="http://www.w3.org/2000/svg" xmlns:xlink="http://www.w3.org/1999/xlink"><g id="tight-bounds" transform="matrix(1,0,0,1,0.2400000000000091,-0.09999999999999432)"><svg viewBox="0 0 395.52 247.2" height="247.2" width="395.52"><g><svg></svg></g><g><svg viewBox="0 0 395.52 247.2" height="247.2" width="395.52"><g transform="matrix(1,0,0,1,150.1449494890511,47.215199999999996)"><svg viewBox="0 0 95.2301010218978 152.7696" height="152.7696" width="95.2301010218978"><g><svg viewBox="0 0 95.2301010218978 152.7696" height="152.7696" width="95.2301010218978"><g><svg viewBox="0 0 95.2301010218978 152.7696" height="152.7696" width="95.2301010218978"><g><svg viewBox="0 0 95.2301010218978 152.7696" height="152.7696" width="95.2301010218978"><g id="textblocktransform"><svg viewBox="0 0 95.2301010218978 152.7696" height="152.7696" width="95.2301010218978" id="textblock"><g><svg viewBox="0 0 95.2301010218978 152.7696" height="152.7696" width="95.2301010218978"><g transform="matrix(1,0,0,1,0,0)"><svg width="95.2301010218978" viewBox="1.5099999904632568 -54.93000030517578 41.70000076293945 66.88999938964844" height="152.7696" data-palette-color="#000000"><path d="M43.21-45.17L43.21-45.17Q42.92-44.68 42.8-44.14 42.68-43.6 42.63-43.07L42.63-43.07 42.29-43.07Q41.89-43.07 41.6-43.19 41.31-43.31 40.92-43.41L40.92-43.41Q41.11-41.55 41.16-39.65 41.21-37.74 41.21-35.89L41.21-35.89Q41.21-33.54 41.16-31.23 41.11-28.91 41.11-26.56L41.11-26.56Q41.11-25.44 40.99-24.34 40.87-23.24 40.38-22.22L40.38-22.22Q40.48-21.39 40.53-20.63 40.58-19.87 40.58-19.04L40.58-19.04Q40.58-16.75 40.31-14.48 40.04-12.21 39.65-9.96L39.65-9.96Q39.5-9.08 39.38-8.18 39.26-7.28 39.01-6.45L39.01-6.45Q38.92-6.2 38.75-5.96 38.57-5.71 38.48-5.47L38.48-5.47Q37.89-4.2 37.18-2.95 36.47-1.71 35.5-0.68L35.5-0.68Q34.77-0.63 34.08-0.29 33.4 0.05 32.81 0.05L32.81 0.05Q32.28 0.05 31.93-0.49L31.93-0.49 31.45-0.29Q31.2-0.2 30.91-0.15L30.91-0.15Q29.25-0.83 27.76-1.81 26.27-2.78 25.29-4.35L25.29-4.35 25.1-4.35Q24.66-4.35 24.46-4.54L24.46-4.54Q24.22-4.79 23.95-5.15 23.68-5.52 23.49-5.81L23.49-5.81Q22.9-6.74 22.22-7.67 21.53-8.59 20.61-9.23L20.61-9.23Q20.21-10.69 19.43-11.74 18.65-12.79 17.82-14.01L17.82-14.01Q17.19-16.46 15.48-18.55L15.48-18.55Q15.72-18.8 15.72-18.9L15.72-18.9Q15.72-19.14 15.55-19.31 15.38-19.48 15.38-19.68L15.38-19.68Q15.38-19.87 15.48-19.97L15.48-19.97Q14.84-20.65 14.43-21.51 14.01-22.36 13.65-23.24 13.28-24.12 12.87-25 12.45-25.88 11.87-26.61L11.87-26.61Q11.33-26.27 11.21-25.78 11.08-25.29 11.08-24.76L11.08-24.76Q11.08-24.37 11.11-23.97 11.13-23.58 11.13-23.19L11.13-23.19Q11.13-22.22 10.91-21.29 10.69-20.36 10.6-19.38L10.6-19.38Q10.55-18.7 10.57-17.87 10.6-17.04 10.52-16.21 10.45-15.38 10.25-14.6 10.06-13.82 9.57-13.28L9.57-13.28Q9.28-10.5 8.84-7.71 8.4-4.93 8.01-2.15L8.01-2.15Q7.91-1.66 7.81-0.93 7.71-0.2 7.59 0.56 7.47 1.32 7.4 2.03 7.32 2.73 7.32 3.17L7.32 3.17Q7.32 3.66 7.57 4.13 7.81 4.59 7.81 5.03L7.81 5.03Q7.81 5.37 7.59 5.44 7.37 5.52 7.32 5.81L7.32 5.81Q7.67 6.88 7.67 8.25L7.67 8.25Q7.67 8.64 7.62 9.06 7.57 9.47 7.47 9.86L7.47 9.86Q7.37 10.11 7.13 10.33 6.88 10.55 6.88 10.74L6.88 10.74Q6.88 10.94 7.08 11.04L7.08 11.04Q6.79 11.33 6.35 11.43 5.91 11.52 5.71 11.96L5.71 11.96Q5.22 11.57 4.74 11.25 4.25 10.94 3.81 10.55L3.81 10.55 3.66 10.5Q3.32 10.5 3.1 10.72 2.88 10.94 2.54 10.94L2.54 10.94Q2.44 10.94 2.37 10.91 2.29 10.89 2.2 10.89L2.2 10.89 1.9 9.62Q1.76 8.98 1.51 8.45L1.51 8.45Q1.9 7.42 2.03 6.13 2.15 4.83 2.29 3.52 2.44 2.2 2.73 1 3.03-0.2 3.81-1.07L3.81-1.07Q3.81-1.46 3.54-1.61 3.27-1.76 3.27-2.25L3.27-2.25Q3.27-2.34 3.34-2.59 3.42-2.83 3.49-3.13 3.56-3.42 3.64-3.69 3.71-3.96 3.76-4.1L3.76-4.1Q4.15-6.01 4.37-8.01 4.59-10.01 5.57-11.72L5.57-11.72Q5.52-11.91 5.52-12.3L5.52-12.3Q5.52-13.13 5.69-13.92 5.86-14.7 5.86-15.53L5.86-15.53Q5.86-16.21 5.71-16.8L5.71-16.8Q5.86-17.33 6.13-17.85 6.4-18.36 6.4-18.9L6.4-18.9Q6.4-19.38 6.05-19.58L6.05-19.58Q6.3-19.78 6.37-20.02 6.45-20.26 6.47-20.51 6.49-20.75 6.57-20.97 6.64-21.19 6.93-21.34L6.93-21.34Q6.88-21.83 6.86-22.27 6.84-22.71 6.84-23.19L6.84-23.19Q6.84-25 7.03-26.78 7.23-28.56 7.23-30.42L7.23-30.42Q7.23-32.23 6.93-33.94L6.93-33.94 7.47-35.01Q6.98-35.4 6.84-36.28 6.69-37.16 6.64-38.18 6.59-39.21 6.47-40.21 6.35-41.21 5.91-41.85L5.91-41.85 5.91-42.29Q5.91-43.07 5.81-43.8 5.71-44.53 5.71-45.26L5.71-45.26 5.71-45.7Q5.96-45.8 6.08-46.04 6.2-46.29 6.25-46.53L6.25-46.53 6.45-46.53Q7.03-46.53 7.62-46.63 8.2-46.73 8.79-46.73L8.79-46.73 9.42-46.73Q10.01-46.29 10.45-45.7 10.89-45.12 11.52-44.63L11.52-44.63 11.52-43.75Q11.96-43.16 12.21-42.48 12.45-41.8 12.72-41.06 12.99-40.33 13.28-39.65 13.57-38.96 14.11-38.48L14.11-38.48Q14.01-37.99 14.01-37.7L14.01-37.7Q14.01-37.06 14.14-36.43 14.26-35.79 14.31-35.21L14.31-35.21Q14.5-34.96 14.65-34.59 14.79-34.23 15.14-34.13L15.14-34.13Q15.38-32.23 16.14-30.52 16.89-28.81 17.24-26.95L17.24-26.95Q17.63-26.56 17.82-26 18.02-25.44 18.24-24.9 18.46-24.37 18.73-23.9 18.99-23.44 19.53-23.24L19.53-23.24Q19.82-22.07 20.26-20.9 20.7-19.73 21.63-18.9L21.63-18.9Q21.63-17.92 21.95-17.21 22.27-16.5 22.68-15.89 23.1-15.28 23.44-14.7 23.78-14.11 23.88-13.43L23.88-13.43Q24.56-12.4 25.46-11.52 26.37-10.64 27.32-9.84 28.27-9.03 29.2-8.2 30.13-7.37 30.91-6.45L30.91-6.45Q31.45-6.4 31.81-6.23 32.18-6.05 32.67-5.96L32.67-5.96Q33.01-6.2 33.23-6.57 33.45-6.93 33.64-7.32 33.84-7.71 34.06-8.08 34.28-8.45 34.62-8.74L34.62-8.74Q34.62-8.84 34.59-8.91 34.57-8.98 34.57-9.08L34.57-9.08Q34.57-9.62 34.74-9.94 34.91-10.25 35.16-10.64L35.16-10.64 35.16-11.91Q35.55-12.65 35.69-13.48 35.84-14.31 35.84-15.14L35.84-15.14Q35.84-15.82 35.79-16.53 35.74-17.24 35.74-17.97L35.74-17.97Q35.74-18.41 35.79-18.87 35.84-19.34 35.99-19.73L35.99-19.73Q36.08-19.82 36.33-20.04 36.57-20.26 36.57-20.31L36.57-20.31Q36.57-20.56 36.43-20.8 36.28-21.04 36.28-21.29L36.28-21.29Q36.28-21.63 36.57-21.83L36.57-21.83 36.57-22.12Q36.57-22.36 36.5-22.58 36.43-22.8 36.18-22.9L36.18-22.9Q36.43-23.19 36.52-23.61 36.62-24.02 36.65-24.49 36.67-24.95 36.65-25.39 36.62-25.83 36.62-26.22L36.62-26.22Q36.62-26.66 36.67-27.15 36.72-27.64 37.06-27.98L37.06-27.98Q36.91-28.56 36.87-29.13 36.82-29.69 36.82-30.27L36.82-30.27Q36.82-31.3 36.91-32.32 37.01-33.35 37.01-34.42L37.01-34.42Q37.01-34.81 36.96-35.23 36.91-35.64 36.91-36.04L36.91-36.04Q36.91-36.43 37.08-36.4 37.26-36.38 37.26-36.62L37.26-36.62Q37.26-36.96 37.18-37.3 37.11-37.65 37.06-37.99L37.06-37.99Q36.96-38.82 36.91-39.67 36.87-40.53 36.87-41.41L36.87-41.41Q36.87-41.94 36.89-42.5 36.91-43.07 37.06-43.6L37.06-43.6Q36.77-44.04 36.69-44.46 36.62-44.87 36.57-45.21L36.57-45.21 36.47-45.95Q36.43-46.34 36.18-46.73L36.18-46.73Q36.13-46.78 36.13-47.02L36.13-47.02Q36.13-47.41 36.33-47.61L36.33-47.61Q36.08-48.44 35.67-49.22 35.25-50 35.16-50.93L35.16-50.93Q34.62-51.22 34.35-51.88 34.08-52.54 34.08-53.08L34.08-53.08Q34.08-53.71 34.42-54.32 34.77-54.93 35.5-54.93L35.5-54.93Q35.79-54.93 36.06-54.76 36.33-54.59 36.6-54.37 36.87-54.15 37.13-53.98 37.4-53.81 37.7-53.81L37.7-53.81Q37.89-53.81 38.28-53.91L38.28-53.91Q38.82-53.17 39.38-52.56 39.94-51.95 40.53-51.32L40.53-51.32Q40.53-50.49 40.82-49.8 41.11-49.12 41.46-48.51 41.8-47.9 42.07-47.31 42.33-46.73 42.29-46.04L42.29-46.04Q42.38-45.7 42.68-45.56 42.97-45.41 43.21-45.17Z" opacity="1" transform="matrix(1,0,0,1,0,0)" fill="#ffffff" class="wordmark-text-0" data-fill-palette-color="primary" id="text-0"></path></svg></g></svg></g></svg></g></svg></g></svg></g></svg></g></svg></g><g><path d="M171.215 0c30.402 0 58.24 10.976 79.768 29.183l-11.147 0c-19.26-14.022-42.974-22.294-68.621-22.295-25.647 0-49.361 8.272-68.621 22.295l-11.147 0c21.528-18.206 49.366-29.183 79.768-29.183zM171.215 247.2c-30.402 0-58.24-10.976-79.768-29.183l11.147 0c19.26 14.022 42.974 22.294 68.621 22.295 25.647 0 49.361-8.272 68.621-22.295l11.147 0c-21.528 18.206-49.366 29.183-79.768 29.183z" fill="#ffffff" stroke="transparent" data-fill-palette-color="tertiary"></path></g></svg></g><defs></defs></svg><rect width="395.52" height="247.2" fill="none" stroke="none" visibility="hidden"></rect></g></svg></g></svg>