<svg xmlns="http://www.w3.org/2000/svg" version="1.1" xmlns:xlink="http://www.w3.org/1999/xlink" xmlns:svgjs="http://svgjs.dev/svgjs" width="1000" height="750" viewBox="0 0 1000 750"><rect width="1000" height="750" fill="#000000"></rect><g transform="matrix(0.834,0,0,0.834,82.49454545454546,115.4193570850203)"><svg viewBox="0 0 396 247" data-background-color="#ffffff" preserveAspectRatio="xMidYMid meet" height="623" width="1000" xmlns="http://www.w3.org/2000/svg" xmlns:xlink="http://www.w3.org/1999/xlink"><g id="tight-bounds" transform="matrix(1,0,0,1,0.2400000000000091,-0.09999999999999432)"><svg viewBox="0 0 395.52 247.2" height="247.2" width="395.52"><g><svg></svg></g><g><svg viewBox="0 0 395.52 247.2" height="247.2" width="395.52"><g transform="matrix(1,0,0,1,75.54432000000001,55.096371230822015)"><svg viewBox="0 0 244.43135999999996 137.00725753835596" height="137.00725753835596" width="244.43135999999996"><g><svg viewBox="0 0 244.43135999999996 137.00725753835596" height="137.00725753835596" width="244.43135999999996"><g><svg viewBox="0 0 272.5525768896 152.7696" height="137.00725753835596" width="244.43135999999996"><g><svg viewBox="0 0 146.1602847960445 152.7696" height="152.7696" width="146.1602847960445"><g id="textblocktransform"><svg viewBox="0 0 146.1602847960445 152.7696" height="152.7696" width="146.1602847960445" id="textblock"><g><svg viewBox="0 0 146.1602847960445 152.7696" height="152.7696" width="146.1602847960445"><g transform="matrix(1,0,0,1,0,0)"><svg width="146.1602847960445" viewBox="3.759999990463257 -37.88999938964844 37.790000915527344 39.5" height="152.7696" data-palette-color="#a437db"><path d="M41.55-15.72L41.55-15.72Q41.55-11.43 41.53-7.25 41.5-3.08 41.46 1.22L41.46 1.22Q38.43 1.07 35.45 1.07L35.45 1.07Q33.98 1.07 32.5 1.22 31.01 1.37 29.54 1.61L29.54 1.61Q27.69-2.44 25.83-6.42 23.97-10.4 22.12-14.45L22.12-14.45Q20.75-17.43 19.53-20.41 18.31-23.39 17.09-26.42L17.09-26.42Q16.65-19.82 16.19-13.31 15.72-6.79 15.43-0.2L15.43-0.2 4.88-0.49Q4.64-9.86 4.44-19.14 4.25-28.42 3.76-37.79L3.76-37.79 22.85-37.89Q23.83-35.45 24.68-32.98 25.54-30.52 26.32-27.98L26.32-27.98Q27.44-24.12 28.86-20.34 30.27-16.55 31.69-12.74L31.69-12.74Q31.64-18.85 31.47-24.9 31.3-30.96 31.2-37.11L31.2-37.11 41.06-35.94Q41.26-30.86 41.41-25.83 41.55-20.8 41.55-15.72Z" opacity="1" transform="matrix(1,0,0,1,0,0)" fill="#ffffff" class="wordmark-text-0" data-fill-palette-color="primary" id="text-0"></path></svg></g></svg></g></svg></g></svg></g><g transform="matrix(1,0,0,1,182.2255208856445,26.817826294977557)"><svg viewBox="0 0 90.32705600395548 99.13394741004488" height="99.13394741004488" width="90.32705600395548"><g><svg xmlns="http://www.w3.org/2000/svg" xmlns:xlink="http://www.w3.org/1999/xlink" version="1.1" x="0" y="0" viewBox="5 1.100000023841858 40 43.900001525878906" enable-background="new 0 0 50 50" xml:space="preserve" height="99.13394741004488" width="90.32705600395548" class="icon-icon-0" data-fill-palette-color="accent" id="icon-0"><path fill="#ffffff" d="M5 26h2.1C7.6 35 15 42.5 24 43v2h2v-2c9-0.5 16.4-8 16.9-17H45v-2h-2.1c-0.5-9-7.3-15.9-16-16.8L25 1.1l-1.9 6.1C14.4 8.1 7.5 15 7.1 24H5V26zM22 10.3L22 10.6l-3 5.5 6.1-3 6.1 3-3-5.5L28 10.3c6.5 1.3 11.5 6.7 12 13.7H38v2h1.9C39.5 33 33 39.5 26 40v-2h-2v2c-7-0.5-13.5-6-13.9-14H12v-2h-1.9C10.5 17 15.5 11.7 22 10.3z" data-fill-palette-color="accent"></path></svg></g></svg></g></svg></g></svg></g></svg></g><g><path d="M245.816 0c68.262 0 123.6 55.338 123.6 123.6 0 68.262-55.338 123.6-123.6 123.6-35.495 0-67.496-14.962-90.04-38.924l8.688 0c21.104 20.28 49.772 32.747 81.352 32.746 64.851 0 117.422-52.572 117.422-117.422 0-64.851-52.572-117.422-117.422-117.422-31.58 0-60.248 12.466-81.352 32.746h-8.688c22.543-23.962 54.544-38.924 90.04-38.924z" fill="#ffffff" stroke="transparent" data-fill-palette-color="tertiary"></path></g></svg></g><defs></defs></svg><rect width="395.52" height="247.2" fill="none" stroke="none" visibility="hidden"></rect></g></svg></g></svg>